<?xml version="1.0" encoding="utf-8"?>
<!-- Generator: Adobe Illustrator 24.1.1, SVG Export Plug-In . SVG Version: 6.00 Build 0)  -->
<svg version="1.1" id="Layer_1" xmlns="http://www.w3.org/2000/svg" xmlns:xlink="http://www.w3.org/1999/xlink" x="0px" y="0px"
	 viewBox="0 0 32 32" style="enable-background:new 0 0 32 32;" xml:space="preserve">
<style type="text/css">
	.st0{fill-opacity:0.12;}
	.st1{fill:none;stroke:#000000;stroke-width:2;stroke-opacity:0.45;}
	.st2{fill-opacity:0.65;}
</style>
<circle class="st0" cx="16" cy="16" r="13"/>
<circle class="st1" cx="16" cy="16" r="13"/>
<path class="st2" d="M16,26.7c-2.3-0.6-4.2-1.9-5.7-4S8,18.3,8,15.8V9.7l8-3l8,3v6.1c0,2.5-0.8,4.8-2.3,6.9
	C20.2,24.8,18.3,26.1,16,26.7z M16,24.6c1.6-0.5,3-1.5,4-3c1.1-1.5,1.7-3.1,1.9-4.9h-6V8.8l-6,2.3v5.2c0,0.1,0,0.3,0.1,0.4H16V24.6z
	"/>
</svg>
