<svg xmlns="http://www.w3.org/2000/svg" viewBox="40 -920 880 880">   <!-- Top (Yellow) -->   <path d="M395-635 L295-735 L480-920 L665-735 L565-635 L480-720 L395-635 Z" fill="#FBBC05"/>    <!-- Left (Red) -->   <path d="M225-295 L40-480 L225-665 L325-565 L240-480 L325-395 L225-295 Z" fill="#EA4335"/>    <!-- Right (Green) -->   <path d="M735-295 L635-395 L720-480 L635-565 L735-665 L920-480 L735-295 Z" fill="#34A853"/>    <!-- Bottom (Blue) -->   <path d="M480-40 L295-225 L395-325 L480-240 L565-325 L665-225 L480-40 Z" fill="#4285F4"/>    <!-- Center (White diamond with Blue stroke for clarity) -->   <path d="M480-400 L400-480 L480-560 L560-480 Z" fill="#FFFFFF" stroke="#4285F4" stroke-width="36" stroke-linejoin="round"/> </svg>